<mxfile host="app.diagrams.net" modified="2023-05-03T16:11:18.498Z" agent="Mozilla/5.0 (Windows NT 10.0; Win64; x64) AppleWebKit/537.36 (KHTML, like Gecko) Chrome/112.0.0.0 Safari/537.36" version="21.2.3" etag="duQ_LpaRNmdOQdlaC7Vv" type="github">
  <diagram name="Sayfa -1" id="f4pNIB43tsao2D6mk8g1">
    <mxGraphModel>
      <root>
        <mxCell id="0" />
        <mxCell id="1" parent="0" />
      </root>
    </mxGraphModel>
  </diagram>
</mxfile>
